<!-- <svg xmlns="http://www.w3.org/2000/svg" viewBox="0 0 24 24" fill="currentColor" class="w-6 h-6">
  <path fill-rule="evenodd" d="M7.5 6a4.5 4.5 0 119 0 4.5 4.5 0 01-9 0zM3.751 20.105a8.25 8.25 0 0116.498 0 .75.75 0 01-.437.695A18.683 18.683 0 0112 22.5c-2.786 0-5.433-.608-7.812-1.7a.75.75 0 01-.437-.695z" clip-rule="evenodd" />
</svg> -->
<svg xmlns="http://www.w3.org/2000/svg" fill="#CCD3DC" viewBox="0 0 24 24">
  <path d="M24 20.993V24H0v-2.996A14.977 14.977 0 0112.004 15c4.904 0 9.26 2.354 11.996 5.993zM16.002 8.999a4 4 0 11-8 0 4 4 0 018 0z" />
</svg>